<?xml version="1.0" encoding="iso-8859-1"?>
<!-- Uploaded to: SVG Repo, www.svgrepo.com, Generator: SVG Repo Mixer Tools -->
<svg height="800px" width="800px" version="1.1" id="Layer_1" xmlns="http://www.w3.org/2000/svg" xmlns:xlink="http://www.w3.org/1999/xlink" 
	 viewBox="0 0 511.349 511.349" xml:space="preserve">
<g transform="translate(1 1)">
	<path style="fill:#FFE100;" d="M135.259,385.386l-24.298-24.298c-6.942-6.942-6.942-17.356,0-24.298l177.898-203.064l73.763,73.763
		L160.425,385.386C153.483,392.329,142.201,392.329,135.259,385.386"/>
	<path style="fill:#FFA800;" d="M350.473,195.339l-49.464-49.464c-19.959-19.959-19.959-52.936,0-72.895l49.464-49.464
		c19.959-19.959,52.936-19.959,72.895,0l49.464,49.464c19.959,19.959,19.959,52.936,0,72.895l-49.464,49.464
		C403.408,215.298,370.432,215.298,350.473,195.339"/>
	<path style="fill:#FFE100;" d="M340.059,180.586l-39.919-39.919c-19.959-19.959-19.959-52.936,0-72.895l34.712-34.712
		c19.959-19.959,52.936-19.959,72.895,0l39.919,39.919c19.959,19.959,19.959,52.936,0,72.895l-34.712,34.712
		C392.995,200.546,360.018,200.546,340.059,180.586"/>
	<path style="fill:#00DA6C;" d="M264.561,231.786L264.561,231.786c-6.942-6.942-6.942-18.224,0-24.298l12.149-12.149
		c6.942-6.942,18.224-6.942,24.298,0l0,0c6.942,6.942,6.942,18.224,0,24.298l-12.149,12.149
		C281.917,238.729,271.503,238.729,264.561,231.786"/>
	<path d="M148.276,399.271c-6.942,0-13.885-2.603-18.224-7.81l-24.298-24.298c-10.414-10.414-10.414-26.902,0-36.447
		l177.898-202.197c1.736-1.736,3.471-2.603,6.075-2.603s4.339,0.868,6.075,2.603l73.763,73.763c1.736,1.736,2.603,4.339,2.603,6.075
		c0,2.603-0.868,4.339-2.603,6.075L165.632,391.461C161.293,396.668,155.218,399.271,148.276,399.271z M289.727,146.742
		L117.903,341.997c-3.471,3.471-3.471,9.546,0,13.017l24.298,24.298l0,0c3.471,3.471,8.678,3.471,12.149,0L349.605,206.62
		L289.727,146.742z"/>
	<path d="M386.92,218.769c-16.488,0-31.241-6.075-42.522-17.356l-49.464-49.464c-23.431-23.431-23.431-61.614,0-85.912
		l49.464-49.464c23.431-23.431,61.614-23.431,85.912,0l49.464,49.464c11.281,11.281,17.356,26.902,17.356,42.522
		c0,16.488-6.075,31.241-17.356,42.522l-49.464,49.464C418.161,212.695,403.408,218.769,386.92,218.769z M386.92,16.573
		c-11.281,0-21.695,4.339-30.373,13.017l-49.464,49.464c-7.81,7.81-13.017,19.092-13.017,30.373s4.339,22.563,13.017,30.373
		l49.464,49.464l0,0c7.81,7.81,19.092,13.017,30.373,13.017s22.563-4.339,30.373-13.017l49.464-49.464
		c7.81-7.81,13.017-19.092,13.017-30.373s-4.339-22.563-13.017-30.373L417.293,29.59C409.483,20.912,398.201,16.573,386.92,16.573z"
		/>
	<path d="M276.71,245.671c-6.942,0-13.885-2.603-18.224-7.81l0,0c-5.207-5.207-7.81-11.281-7.81-18.224
		c0-6.942,2.603-13.885,7.81-18.224l12.149-12.149c10.414-10.414,26.902-10.414,36.447,0c10.414,10.414,10.414,26.902,0,36.447
		l-12.149,12.149C290.595,243.068,283.652,245.671,276.71,245.671z M270.635,225.712c3.471,3.471,8.678,3.471,12.149,0
		l12.149-12.149c3.471-3.471,3.471-8.678,0-12.149c-3.471-3.471-8.678-3.471-12.149,0l-12.149,12.149
		c-1.736,1.736-2.603,3.471-2.603,6.075C268.032,222.241,268.9,223.976,270.635,225.712L270.635,225.712z"/>
	<path d="M20.71,510.349c-3.471,0-6.075-1.736-7.81-5.207c-1.736-4.339,0-9.546,3.471-11.281l17.356-8.678
		c2.603-0.868,46.861-21.695,39.051-59.878c-3.471-14.753-0.868-27.77,6.075-39.051c13.885-19.959,41.654-22.563,42.522-22.563
		c4.339-0.868,8.678,2.603,9.546,7.81c0.868,4.339-2.603,8.678-7.81,9.546c-0.868,0-20.827,2.603-30.373,15.62
		c-4.339,6.942-6.075,14.753-3.471,25.166c9.546,41.654-27.769,70.292-48.597,78.969l-17.356,8.678
		C23.313,510.349,21.578,510.349,20.71,510.349z"/>
</g>
</svg>