<svg xmlns="http://www.w3.org/2000/svg" version="1.1" xmlns:xlink="http://www.w3.org/1999/xlink" xmlns:svgjs="http://svgjs.dev/svgjs" width="1500" height="1500" viewBox="0 0 1500 1500"><rect width="1500" height="1500" fill="#ffffff"></rect><g transform="matrix(0.6666666666666666,0,0,0.6666666666666666,249.39393939393938,438.5856950067477)"><svg viewBox="0 0 396 247" data-background-color="#ffffff" preserveAspectRatio="xMidYMid meet" height="935" width="1500" xmlns="http://www.w3.org/2000/svg" xmlns:xlink="http://www.w3.org/1999/xlink"><g id="tight-bounds" transform="matrix(1,0,0,1,0.2400000000000091,-0.09999999999999432)"><svg viewBox="0 0 395.52 247.2" height="247.2" width="395.52"><g><svg></svg></g><g><svg viewBox="0 0 395.52 247.2" height="247.2" width="395.52"><g transform="matrix(1,0,0,1,75.54432,107.05072278010785)"><svg viewBox="0 0 244.43135999999998 33.0985544397843" height="33.0985544397843" width="244.43135999999998"><g><svg viewBox="0 0 244.43135999999998 33.0985544397843" height="33.0985544397843" width="244.43135999999998"><g><svg viewBox="0 0 244.43135999999998 33.0985544397843" height="33.0985544397843" width="244.43135999999998"><g><svg viewBox="0 0 244.43135999999998 33.0985544397843" height="33.0985544397843" width="244.43135999999998"><g id="textblocktransform"><svg viewBox="0 0 244.43135999999998 33.0985544397843" height="33.0985544397843" width="244.43135999999998" id="textblock"><g><svg viewBox="0 0 244.43135999999998 33.0985544397843" height="33.0985544397843" width="244.43135999999998"><g transform="matrix(1,0,0,1,0,0)"><svg width="244.43135999999998" viewBox="3 -32.74 241.38 33.11" height="33.0985544397843" data-palette-color="#152232"><g class="wordmark-text-0" data-fill-palette-color="primary" id="text-0"><path d="M4.74 0Q3.83 0 3.42-0.42 3-0.83 3-1.73L3-1.73 3-28.66Q3-29.57 3.42-29.97 3.83-30.37 4.74-30.37L4.74-30.37 20.63-30.37Q21.31-30.37 21.62-29.86 21.92-29.35 21.92-28.2L21.92-28.2 21.92-26.88Q21.92-25.73 21.62-25.22 21.31-24.71 20.63-24.71L20.63-24.71 9.69-24.71 9.69-18.41 19.46-18.41Q20.14-18.41 20.45-17.9 20.75-17.38 20.75-16.24L20.75-16.24 20.75-14.89Q20.75-13.75 20.45-13.23 20.14-12.72 19.46-12.72L19.46-12.72 9.69-12.72 9.69-5.69 20.65-5.69Q21.34-5.69 21.64-5.18 21.95-4.66 21.95-3.54L21.95-3.54 21.95-2.17Q21.95-1.03 21.64-0.51 21.34 0 20.65 0L20.65 0 4.74 0ZM32.79 0.37Q29.68 0.37 28.06-1.38 26.44-3.13 26.44-6.69L26.44-6.69 26.44-31.32Q26.44-32.74 29.05-32.74L29.05-32.74 30.27-32.74Q31.61-32.74 32.24-32.39 32.86-32.03 32.86-31.32L32.86-31.32 32.86-6.62Q32.86-5.62 33.23-5.18 33.59-4.74 34.45-4.74L34.45-4.74Q34.67-4.74 35.1-4.83L35.1-4.83Q35.23-4.86 35.35-4.88 35.47-4.91 35.62-4.91L35.62-4.91Q35.98-4.91 36.29-4.26 36.59-3.61 36.77-2.82 36.94-2.03 36.94-1.78L36.94-1.78Q36.94 0.37 32.79 0.37L32.79 0.37ZM41.79-26.44Q40.42-26.44 39.8-26.78 39.18-27.12 39.18-27.83L39.18-27.83 39.18-31.32Q39.18-32.03 39.81-32.39 40.45-32.74 41.79-32.74L41.79-32.74 42.99-32.74Q44.33-32.74 44.97-32.39 45.6-32.03 45.6-31.32L45.6-31.32 45.6-27.83Q45.6-27.12 44.98-26.78 44.36-26.44 42.99-26.44L42.99-26.44 41.79-26.44ZM41.79 0.07Q39.18 0.07 39.18-1.29L39.18-1.29 39.18-21.41Q39.18-22.09 39.81-22.44 40.45-22.78 41.79-22.78L41.79-22.78 42.99-22.78Q44.33-22.78 44.97-22.44 45.6-22.09 45.6-21.41L45.6-21.41 45.6-1.29Q45.6 0.07 42.99 0.07L42.99 0.07 41.79 0.07ZM57.81 0.37Q54.7 0.37 53.08-1.38 51.46-3.13 51.46-6.69L51.46-6.69 51.46-17.63 50.77-17.63Q50.09-17.63 49.78-18.14 49.48-18.65 49.48-19.8L49.48-19.8 49.48-20.53Q49.48-21.68 49.78-22.19 50.09-22.71 50.77-22.71L50.77-22.71 51.46-22.71 52.02-26.83Q52.21-28.2 54.36-28.2L54.36-28.2 55.73-28.2Q56.85-28.2 57.38-27.86 57.9-27.51 57.9-26.83L57.9-26.83 57.9-22.71 60.03-22.71Q60.71-22.71 61.02-22.19 61.32-21.68 61.32-20.53L61.32-20.53 61.32-19.8Q61.32-18.65 61.02-18.14 60.71-17.63 60.03-17.63L60.03-17.63 57.9-17.63 57.9-6.62Q57.9-5.62 58.26-5.18 58.61-4.74 59.44-4.74L59.44-4.74Q59.68-4.74 60.1-4.82 60.51-4.91 60.61-4.91L60.61-4.91Q61-4.91 61.31-4.26 61.61-3.61 61.8-2.83 61.98-2.05 61.98-1.78L61.98-1.78Q61.98 0.37 57.81 0.37L57.81 0.37ZM76.14 0.37Q70.42 0.37 67.62-2.7 64.81-5.76 64.81-11.21L64.81-11.21Q64.81-17.33 67.62-20.19 70.42-23.05 75.36-23.05L75.36-23.05Q78.63-23.05 80.72-21.56 82.8-20.07 83.77-17.55 84.73-15.04 84.73-11.87L84.73-11.87Q84.73-11.5 84.3-10.89 83.88-10.28 83.34-9.79 82.8-9.3 82.51-9.3L82.51-9.3 71.45-9.3Q71.67-6.81 72.93-5.77 74.18-4.74 76.43-4.74L76.43-4.74Q77.65-4.74 78.64-5.02 79.63-5.3 80.75-5.76L80.75-5.76Q81.44-6.08 81.68-6.08L81.68-6.08Q82.12-6.08 82.64-5.46 83.17-4.83 83.55-4.03 83.93-3.22 83.93-2.78L83.93-2.78Q83.93-1.78 82.57-1.07 81.22-0.37 79.37 0 77.53 0.37 76.14 0.37L76.14 0.37ZM71.45-13.57L78.48-13.57Q78.48-15.58 77.7-16.78 76.92-17.99 75.36-17.99L75.36-17.99Q72.13-17.99 71.45-13.57L71.45-13.57Z" fill="#152232" data-fill-palette-color="primary"></path><path d="M97.81 0.07Q95.15 0.07 95.15-0.88L95.15-0.88Q95.15-1.15 95.32-1.66L95.32-1.66 104.89-29.57Q105.24-30.49 107.36-30.49L107.36-30.49 109.61-30.49Q111.73-30.49 112.07-29.57L112.07-29.57 121.64-1.66Q121.76-1.17 121.76-0.88L121.76-0.88Q121.76-0.39 121.24-0.16 120.71 0.07 119.59 0.07L119.59 0.07 117.69 0.07Q116.66 0.07 116.04-0.13 115.42-0.34 115.27-0.83L115.27-0.83 113.51-6.13 103.28-6.13 101.52-0.83Q101.26 0.07 99.52 0.07L99.52 0.07 97.81 0.07ZM105.14-11.87L111.66-11.87 109.19-19.58Q108.97-20.17 108.81-20.92 108.65-21.68 108.53-22.36L108.53-22.36 108.36-22.36 108.26-21.83Q108.02-20.39 107.7-19.58L107.7-19.58 105.14-11.87ZM126.94-26.44Q125.57-26.44 124.95-26.78 124.32-27.12 124.32-27.83L124.32-27.83 124.32-31.32Q124.32-32.03 124.96-32.39 125.59-32.74 126.94-32.74L126.94-32.74 128.13-32.74Q129.48-32.74 130.11-32.39 130.75-32.03 130.75-31.32L130.75-31.32 130.75-27.83Q130.75-27.12 130.12-26.78 129.5-26.44 128.13-26.44L128.13-26.44 126.94-26.44ZM126.94 0.07Q124.32 0.07 124.32-1.29L124.32-1.29 124.32-21.41Q124.32-22.09 124.96-22.44 125.59-22.78 126.94-22.78L126.94-22.78 128.13-22.78Q129.48-22.78 130.11-22.44 130.75-22.09 130.75-21.41L130.75-21.41 130.75-1.29Q130.75 0.07 128.13 0.07L128.13 0.07 126.94 0.07Z" fill="#5ebc67" data-fill-palette-color="secondary"></path><path d="M152.33 0.07Q149.72 0.07 149.72-1.29L149.72-1.29 149.72-24.71 142.83-24.71Q142.15-24.71 141.84-25.22 141.54-25.73 141.54-26.88L141.54-26.88 141.54-28.2Q141.54-29.35 141.84-29.86 142.15-30.37 142.83-30.37L142.83-30.37 163.36-30.37Q164.05-30.37 164.35-29.86 164.66-29.35 164.66-28.2L164.66-28.2 164.66-26.88Q164.66-25.73 164.35-25.22 164.05-24.71 163.36-24.71L163.36-24.71 156.46-24.71 156.46-1.29Q156.46 0.07 153.84 0.07L153.84 0.07 152.33 0.07ZM177.38 0.37Q172.22 0.37 169.53-2.66 166.83-5.69 166.83-11.38L166.83-11.38Q166.83-17.04 169.53-20.04 172.22-23.05 177.38-23.05L177.38-23.05Q182.53-23.05 185.2-20.06 187.87-17.07 187.87-11.38L187.87-11.38Q187.87-5.69 185.2-2.66 182.53 0.37 177.38 0.37L177.38 0.37ZM177.38-4.74Q179.43-4.74 180.39-6.4 181.36-8.06 181.36-11.38L181.36-11.38Q181.36-14.67 180.39-16.33 179.43-17.99 177.38-17.99L177.38-17.99Q173.32-17.99 173.32-11.38L173.32-11.38Q173.32-8.08 174.31-6.41 175.3-4.74 177.38-4.74L177.38-4.74ZM202.08 0.37Q196.93 0.37 194.23-2.66 191.53-5.69 191.53-11.38L191.53-11.38Q191.53-17.04 194.23-20.04 196.93-23.05 202.08-23.05L202.08-23.05Q207.23-23.05 209.91-20.06 212.58-17.07 212.58-11.38L212.58-11.38Q212.58-5.69 209.91-2.66 207.23 0.37 202.08 0.37L202.08 0.37ZM202.08-4.74Q204.13-4.74 205.1-6.4 206.06-8.06 206.06-11.38L206.06-11.38Q206.06-14.67 205.1-16.33 204.13-17.99 202.08-17.99L202.08-17.99Q198.03-17.99 198.03-11.38L198.03-11.38Q198.03-8.08 199.02-6.41 200.01-4.74 202.08-4.74L202.08-4.74ZM223.49 0.37Q220.39 0.37 218.76-1.38 217.14-3.13 217.14-6.69L217.14-6.69 217.14-31.32Q217.14-32.74 219.75-32.74L219.75-32.74 220.97-32.74Q222.32-32.74 222.94-32.39 223.56-32.03 223.56-31.32L223.56-31.32 223.56-6.62Q223.56-5.62 223.93-5.18 224.29-4.74 225.15-4.74L225.15-4.74Q225.37-4.74 225.81-4.83L225.81-4.83Q225.93-4.86 226.05-4.88 226.17-4.91 226.32-4.91L226.32-4.91Q226.69-4.91 226.99-4.26 227.3-3.61 227.47-2.82 227.64-2.03 227.64-1.78L227.64-1.78Q227.64 0.37 223.49 0.37L223.49 0.37ZM235.86 0.37Q234.18 0.37 232.52 0 230.86-0.37 229.77-1.05 228.69-1.73 228.69-2.61L228.69-2.61Q228.69-3.15 229.08-3.96 229.47-4.76 230.02-5.36 230.57-5.96 230.98-5.96L230.98-5.96Q231.2-5.96 231.93-5.62L231.93-5.62Q232.79-5.22 233.57-4.98 234.35-4.74 235.35-4.74L235.35-4.74Q236.6-4.74 237.23-5.2 237.87-5.66 237.87-6.57L237.87-6.57Q237.87-7.25 237.49-7.7 237.11-8.15 236.52-8.45 235.94-8.74 234.86-9.16L234.86-9.16 234.16-9.42Q232.76-9.96 231.71-10.64 230.66-11.33 229.93-12.63 229.2-13.94 229.2-15.94L229.2-15.94Q229.2-18.16 230.16-19.76 231.13-21.36 232.91-22.2 234.69-23.05 237.11-23.05L237.11-23.05Q238.5-23.05 240.01-22.78 241.53-22.51 242.57-21.95 243.6-21.39 243.6-20.53L243.6-20.53Q243.6-20.04 243.3-19.21 242.99-18.38 242.55-17.75 242.11-17.11 241.72-17.11L241.72-17.11Q241.6-17.11 241.04-17.33L241.04-17.33Q240.28-17.65 239.59-17.83 238.89-18.02 237.99-18.02L237.99-18.02Q235.69-18.02 235.69-16.5L235.69-16.5Q235.69-15.82 236.12-15.33 236.55-14.84 237.18-14.53 237.82-14.21 238.97-13.77L238.97-13.77Q240.28-13.23 240.6-13.09L240.6-13.09Q242.31-12.23 243.35-10.83 244.38-9.42 244.38-7.08L244.38-7.08Q244.38-4.86 243.38-3.17 242.38-1.49 240.45-0.56 238.53 0.37 235.86 0.37L235.86 0.37Z" fill="#152232" data-fill-palette-color="primary"></path></g></svg></g></svg></g></svg></g></svg></g></svg></g></svg></g></svg></g><path d="M178.198 101.051L178.198 37.476 5.95 37.476 5.95 209.724 178.198 209.724 178.198 146.149 175.213 146.149 175.213 206.739 8.935 206.739 8.935 40.461 175.213 40.461 175.213 101.051Z" fill="#5ebc67" stroke="transparent" data-fill-palette-color="tertiary"></path></svg></g><defs></defs></svg><rect width="395.52" height="247.2" fill="none" stroke="none" visibility="hidden"></rect></g></svg></g></svg>